<svg width="650" height="512" viewBox="0 0 650 512" fill="none" xmlns="http://www.w3.org/2000/svg">
<path d="M568.904 220.745V202.554C568.904 199.085 567.526 195.759 565.073 193.306C562.62 190.853 559.293 189.475 555.825 189.475H509.659C507.941 189.475 506.24 189.136 504.653 188.479C503.066 187.822 501.625 186.858 500.41 185.644C499.195 184.429 498.232 182.987 497.575 181.401C496.917 179.814 496.579 178.113 496.579 176.395V158.204C496.579 156.487 496.917 154.786 497.575 153.199C498.232 151.612 499.195 150.17 500.41 148.956C501.625 147.741 503.066 146.778 504.653 146.12C506.24 145.463 507.941 145.125 509.659 145.125H511.116C514.585 145.125 517.912 143.747 520.365 141.294C522.818 138.841 524.196 135.514 524.196 132.045V113.854C524.196 110.385 522.818 107.058 520.365 104.606C517.912 102.153 514.585 100.775 511.116 100.775H169.209C165.74 100.775 162.413 102.153 159.96 104.606C157.508 107.058 156.13 110.385 156.13 113.854V132.045C156.13 135.514 157.508 138.841 159.96 141.294C162.413 143.747 165.74 145.125 169.209 145.125V145.125C172.678 145.125 176.005 146.503 178.458 148.956C180.91 151.408 182.288 154.735 182.288 158.204V176.395C182.288 179.864 180.91 183.191 178.458 185.644C176.005 188.097 172.678 189.475 169.209 189.475H118.63C115.161 189.475 111.834 190.853 109.381 193.306C106.928 195.759 105.55 199.085 105.55 202.554V220.745C105.55 224.214 106.928 227.541 109.381 229.994C111.834 232.447 115.161 233.825 118.63 233.825H138.476C140.194 233.825 141.895 234.163 143.482 234.82C145.068 235.478 146.51 236.441 147.725 237.656C148.939 238.87 149.903 240.312 150.56 241.899C151.217 243.486 151.556 245.187 151.556 246.904V265.096C151.556 266.813 151.217 268.514 150.56 270.101C149.903 271.688 148.939 273.13 147.725 274.344C146.51 275.559 145.068 276.522 143.482 277.179C141.895 277.837 140.194 278.175 138.476 278.175H138.428C134.959 278.175 131.633 279.553 129.18 282.006C126.727 284.459 125.349 287.786 125.349 291.254V309.446C125.349 311.163 125.687 312.864 126.344 314.451C127.002 316.038 127.965 317.48 129.18 318.694C130.394 319.909 131.836 320.872 133.423 321.529C135.01 322.187 136.711 322.525 138.428 322.525H141.3C144.769 322.525 148.095 323.903 150.548 326.356C153.001 328.809 154.379 332.136 154.379 335.604V353.796C154.379 357.265 153.001 360.591 150.548 363.044C148.095 365.497 144.769 366.875 141.3 366.875H94.1752C90.7063 366.875 87.3795 368.253 84.9266 370.706C82.4737 373.159 81.0957 376.486 81.0957 379.955V398.146C81.0957 401.615 82.4737 404.941 84.9266 407.394C87.3795 409.847 90.7063 411.225 94.1752 411.225H518.138C521.607 411.225 524.934 409.847 527.387 407.394C529.84 404.941 531.218 401.615 531.218 398.146V379.955C531.218 376.486 529.84 373.159 527.387 370.706C524.934 368.253 521.607 366.875 518.138 366.875H506.798C503.329 366.875 500.002 365.497 497.549 363.044C495.096 360.591 493.718 357.265 493.718 353.796V335.604C493.718 332.136 495.096 328.809 497.549 326.356C500.002 323.903 503.329 322.525 506.798 322.525H533.538C535.255 322.525 536.956 322.187 538.543 321.529C540.13 320.872 541.572 319.909 542.786 318.694C544.001 317.48 544.964 316.038 545.621 314.451C546.279 312.864 546.617 311.163 546.617 309.446V291.254C546.617 287.786 545.239 284.459 542.786 282.006C540.333 279.553 537.006 278.175 533.538 278.175H525.426C523.708 278.175 522.007 277.837 520.421 277.179C518.834 276.522 517.392 275.559 516.177 274.344C514.963 273.13 513.999 271.688 513.342 270.101C512.685 268.514 512.346 266.813 512.346 265.096V246.904C512.346 245.187 512.685 243.486 513.342 241.899C513.999 240.312 514.963 238.87 516.177 237.656C517.392 236.441 518.834 235.478 520.421 234.82C522.007 234.163 523.708 233.825 525.426 233.825H555.825C559.293 233.825 562.62 232.447 565.073 229.994C567.526 227.541 568.904 224.214 568.904 220.745V220.745Z" fill="#EBEBEB"/>
<path d="M377.401 231.797H217.561V377.237H377.401V231.797Z" fill="#646464"/>
<path d="M462.361 231.797H377.401V377.237H462.361V231.797Z" fill="#2C3335"/>
<path d="M462.361 232.157H377.401L406.502 192.464C406.781 192.083 407.145 191.774 407.566 191.561C407.986 191.348 408.451 191.237 408.922 191.237H486.442C486.996 191.237 487.54 191.391 488.012 191.681C488.485 191.971 488.867 192.387 489.118 192.881C489.369 193.376 489.477 193.93 489.432 194.482C489.387 195.035 489.189 195.564 488.862 196.011L462.361 232.157Z" fill="#464646"/>
<path d="M217.956 232.157H302.916L273.815 192.464C273.537 192.083 273.172 191.774 272.752 191.561C272.332 191.348 271.867 191.237 271.396 191.237H193.875C193.321 191.237 192.778 191.391 192.305 191.681C191.833 191.971 191.45 192.387 191.2 192.881C190.949 193.376 190.84 193.93 190.886 194.482C190.931 195.035 191.128 195.564 191.456 196.011L217.956 232.157Z" fill="#2C3335"/>
<path d="M510.293 285.158L462.361 232.157V290.117H508.022C508.596 290.117 509.159 289.952 509.642 289.642C510.125 289.331 510.51 288.889 510.749 288.366C510.988 287.844 511.072 287.264 510.992 286.695C510.911 286.126 510.668 285.593 510.293 285.158Z" fill="#464646"/>
<path d="M357.746 153.791H246.893V232.157H357.746V153.791Z" fill="#929292"/>
<path d="M299.08 236.995H268.582C267.993 236.995 267.415 236.84 266.905 236.546C266.395 236.251 265.972 235.828 265.677 235.318C265.383 234.808 265.228 234.23 265.228 233.641C265.228 233.052 265.383 232.474 265.677 231.964L280.926 205.552L296.175 179.14C296.47 178.63 296.893 178.207 297.403 177.912C297.913 177.618 298.491 177.463 299.08 177.463C299.669 177.463 300.247 177.618 300.757 177.912C301.267 178.207 301.69 178.63 301.985 179.14L317.234 205.552L332.483 231.964C332.777 232.474 332.932 233.052 332.932 233.641C332.932 234.23 332.777 234.808 332.483 235.318C332.188 235.828 331.765 236.251 331.255 236.546C330.745 236.84 330.167 236.995 329.578 236.995H299.08Z" fill="#FFB800"/>
<path d="M300.758 193.979C300.758 193.052 300.007 192.301 299.08 192.301C298.153 192.301 297.402 193.052 297.402 193.979V218.991C297.402 219.918 298.153 220.669 299.08 220.669C300.007 220.669 300.758 219.918 300.758 218.991V193.979Z" fill="#EBEBEB"/>
<path d="M303.074 227.631C303.293 225.425 301.682 223.459 299.475 223.241C297.269 223.022 295.304 224.633 295.085 226.84C294.867 229.046 296.478 231.011 298.684 231.23C300.89 231.448 302.856 229.837 303.074 227.631Z" fill="#EBEBEB"/>
<path d="M325.667 290.117H173.751C173.176 290.117 172.614 289.952 172.13 289.642C171.647 289.332 171.263 288.889 171.023 288.366C170.784 287.844 170.7 287.264 170.781 286.695C170.862 286.126 171.104 285.593 171.479 285.158L217.201 232.157H377.041L327.938 289.077C327.657 289.403 327.308 289.665 326.916 289.845C326.524 290.024 326.098 290.117 325.667 290.117Z" fill="#959595"/>
<path d="M279.905 138.022C283.695 138.022 283.695 140.022 287.485 140.022C291.273 140.022 291.273 138.022 295.062 138.022C298.853 138.022 298.853 140.022 302.644 140.022C306.435 140.022 306.435 138.022 310.226 138.022M474.287 338.334C478.077 338.334 478.077 340.334 481.866 340.334C485.655 340.334 485.655 338.334 489.443 338.334C493.234 338.334 493.234 340.334 497.026 340.334C500.817 340.334 500.817 338.334 504.608 338.334H474.287ZM474.287 347.074C478.077 347.074 478.077 349.074 481.866 349.074C485.655 349.074 485.655 347.074 489.443 347.074C493.234 347.074 493.234 349.074 497.026 349.074C500.817 349.074 500.817 347.074 504.608 347.074H474.287ZM474.287 355.813C478.077 355.813 478.077 357.813 481.866 357.813C485.655 357.813 485.655 355.813 489.443 355.813C493.234 355.813 493.234 357.813 497.026 357.813C500.817 357.813 500.817 355.813 504.608 355.813H474.287ZM111.184 292.117C114.973 292.117 114.973 294.117 118.763 294.117C122.551 294.117 122.551 292.117 126.34 292.117C130.131 292.117 130.131 294.117 133.922 294.117C137.713 294.117 137.713 292.117 141.504 292.117H111.184ZM111.184 300.857C114.973 300.857 114.973 302.857 118.763 302.857C122.551 302.857 122.551 300.857 126.34 300.857C130.131 300.857 130.131 302.857 133.922 302.857C137.713 302.857 137.713 300.857 141.504 300.857H111.184ZM111.184 309.596C114.973 309.596 114.973 311.596 118.763 311.596C122.551 311.596 122.551 309.596 126.34 309.596C130.131 309.596 130.131 311.596 133.922 311.596C137.713 311.596 137.713 309.596 141.504 309.596H111.184ZM279.905 120.543C283.695 120.543 283.695 122.543 287.485 122.543C291.273 122.543 291.273 120.543 295.062 120.543C298.853 120.543 298.853 122.543 302.644 122.543C306.435 122.543 306.435 120.543 310.226 120.543H279.905ZM279.905 129.282C283.695 129.282 283.695 131.282 287.485 131.282C291.273 131.282 291.273 129.282 295.062 129.282C298.853 129.282 298.853 131.282 302.644 131.282C306.435 131.282 306.435 129.282 310.226 129.282H279.905Z" stroke="#848484" stroke-width="3" stroke-miterlimit="10" stroke-linecap="round"/>
<path d="M183.705 404.17C190.863 404.17 196.665 398.368 196.665 391.21C196.665 384.052 190.863 378.25 183.705 378.25C176.548 378.25 170.745 384.052 170.745 391.21C170.745 398.368 176.548 404.17 183.705 404.17Z" fill="#848484"/>
<path d="M193.109 363.744C196.82 363.744 199.829 360.735 199.829 357.024C199.829 353.313 196.82 350.304 193.109 350.304C189.398 350.304 186.389 353.313 186.389 357.024C186.389 360.735 189.398 363.744 193.109 363.744Z" fill="#848484"/>
<path d="M219.723 402.25C225.025 402.25 229.323 397.952 229.323 392.65C229.323 387.348 225.025 383.05 219.723 383.05C214.421 383.05 210.123 387.348 210.123 392.65C210.123 397.952 214.421 402.25 219.723 402.25Z" fill="#848484"/>
<path d="M170.969 228.121C179.485 228.121 186.389 221.217 186.389 212.701C186.389 204.185 179.485 197.281 170.969 197.281C162.453 197.281 155.549 204.185 155.549 212.701C155.549 221.217 162.453 228.121 170.969 228.121Z" fill="#848484"/>
<path d="M141.504 209.75C145.94 209.75 149.536 206.154 149.536 201.718C149.536 197.282 145.94 193.686 141.504 193.686C137.068 193.686 133.472 197.282 133.472 201.718C133.472 206.154 137.068 209.75 141.504 209.75Z" fill="#848484"/>
<path d="M148.882 179.048C151.441 179.048 153.515 176.974 153.515 174.415C153.515 171.856 151.441 169.782 148.882 169.782C146.323 169.782 144.249 171.856 144.249 174.415C144.249 176.974 146.323 179.048 148.882 179.048Z" fill="#848484"/>
<path d="M174.529 188.8C180.663 188.8 185.636 183.827 185.636 177.693C185.636 171.559 180.663 166.586 174.529 166.586C168.395 166.586 163.422 171.559 163.422 177.693C163.422 183.827 168.395 188.8 174.529 188.8Z" fill="#848484"/>
<path d="M438.988 153.337C447.504 153.337 454.408 146.433 454.408 137.917C454.408 129.401 447.504 122.497 438.988 122.497C430.472 122.497 423.568 129.401 423.568 137.917C423.568 146.433 430.472 153.337 438.988 153.337Z" fill="#848484"/>
<path d="M463.523 126.281C467.959 126.281 471.555 122.685 471.555 118.249C471.555 113.813 467.959 110.217 463.523 110.217C459.087 110.217 455.491 113.813 455.491 118.249C455.491 122.685 459.087 126.281 463.523 126.281Z" fill="#848484"/>
<path d="M494.205 169.275C498.044 169.275 501.157 166.163 501.157 162.323C501.157 158.484 498.044 155.371 494.205 155.371C490.365 155.371 487.253 158.484 487.253 162.323C487.253 166.163 490.365 169.275 494.205 169.275Z" fill="#848484"/>
<path d="M483.183 143.213C485.742 143.213 487.816 141.139 487.816 138.58C487.816 136.021 485.742 133.947 483.183 133.947C480.624 133.947 478.55 136.021 478.55 138.58C478.55 141.139 480.624 143.213 483.183 143.213Z" fill="#848484"/>
<path d="M467.22 170.027C473.354 170.027 478.327 165.054 478.327 158.92C478.327 152.786 473.354 147.813 467.22 147.813C461.086 147.813 456.113 152.786 456.113 158.92C456.113 165.054 461.086 170.027 467.22 170.027Z" fill="#848484"/>
</svg>
